<svg xmlns="http://www.w3.org/2000/svg" version="1.1" xmlns:xlink="http://www.w3.org/1999/xlink" xmlns:svgjs="http://svgjs.dev/svgjs" width="2000" height="2000" viewBox="0 0 2000 2000"><g transform="matrix(1,0,0,1,-0.28443113772425477,-0.28443113772459583)"><svg viewBox="0 0 334 334" data-background-color="#ffffff" preserveAspectRatio="xMidYMid meet" height="2000" width="2000" xmlns="http://www.w3.org/2000/svg" xmlns:xlink="http://www.w3.org/1999/xlink"><g id="tight-bounds" transform="matrix(1,0,0,1,0.04749999999998522,0.04750000000001364)"><svg viewBox="0 0 333.90454557049503 333.90454557049503" height="333.90454557049503" width="333.90454557049503"><g><svg></svg></g><g><svg viewBox="0 0 333.90454557049503 333.90454557049503" height="333.90454557049503" width="333.90454557049503"><g><path d="M0 166.952c0-92.205 74.747-166.952 166.952-166.952 92.205 0 166.952 74.747 166.953 166.952 0 92.205-74.747 166.952-166.953 166.953-92.205 0-166.952-74.747-166.952-166.953zM166.952 325.212c87.405 0 158.26-70.855 158.26-158.26 0-87.405-70.855-158.26-158.26-158.26-87.405 0-158.26 70.855-158.26 158.26 0 87.405 70.855 158.26 158.26 158.26z" data-fill-palette-color="tertiary" fill="#ffffff" stroke="transparent"></path><ellipse rx="160.27418187383762" ry="160.27418187383762" cx="166.95227278524752" cy="166.95227278524752" fill="#ffffff" stroke="transparent" stroke-width="0" fill-opacity="1" data-fill-palette-color="tertiary"></ellipse></g><g transform="matrix(1,0,0,1,105.5912253373086,71.17305217166896)"><svg viewBox="0 0 122.72209489587783 191.55844122715712" height="191.55844122715712" width="122.72209489587783"><g><svg viewBox="0 0 122.72209489587783 191.55844122715712" height="191.55844122715712" width="122.72209489587783"><g><svg viewBox="0 0 213.1584412271571 332.721656768722" height="191.55844122715712" width="122.72209489587783"><g transform="matrix(1,0,0,1,0,165.30491058472032)"><svg viewBox="0 0 213.1584412271571 167.41674618400168" height="167.41674618400168" width="213.1584412271571"><g id="textblocktransform"><svg viewBox="0 0 213.1584412271571 167.41674618400168" height="167.41674618400168" width="213.1584412271571" id="textblock"><g><svg viewBox="0 0 213.1584412271571 167.41674618400168" height="167.41674618400168" width="213.1584412271571"><g transform="matrix(1,0,0,1,0,0)"><svg width="213.1584412271571" viewBox="-0.3025 -25.39 32.32362305312 25.39" height="167.41674618400168" data-palette-color="#ffffff"><path d="M-0.24-1.29L5.81-24.1Q6.05-25.05 6.26-25.22 6.47-25.39 6.81-25.39L6.81-25.39 8.86-25.39Q10.11-25.39 9.67-23.95L9.67-23.95 5.91-11.35 11.11-19.95Q12.62-22.46 14.47-23.93 16.31-25.39 17.5-25.39L17.5-25.39 18.55-25.39Q19.36-25.39 19.81-25.12 20.26-24.85 20.54-23.9 20.83-22.95 20.26-21.09L20.26-21.09 17.72-11.74 22.51-20Q24.07-22.71 25.87-24.05 27.66-25.39 28.91-25.39L28.91-25.39 29.96-25.39Q30.76-25.39 31.21-25.12 31.67-24.85 31.93-23.9 32.2-22.95 31.67-21.09L31.67-21.09 26.07-0.71Q25.9 0 25.27 0L25.27 0 22.66 0Q21.92 0 22.27-1.2L22.27-1.2 27.51-18.36Q27.91-19.7 27.91-20.13 27.91-20.56 27.56-20.56 27.22-20.56 26.75-20.1 26.27-19.65 25.46-18.46L25.46-18.46Q24.51-17.09 23.39-15.27 22.27-13.45 20.43-10.6 18.6-7.74 18.02-6.74L18.02-6.74Q15.77-3.1 14.67-0.71L14.67-0.71Q14.36 0 13.82 0L13.82 0 11.25 0Q10.52 0 10.86-1.2L10.86-1.2 16.11-18.36Q16.5-19.7 16.5-20.13 16.5-20.56 16.16-20.56 15.82-20.56 15.34-20.1 14.87-19.65 14.06-18.46L14.06-18.46Q13.11-17.09 11.77-14.92 10.42-12.74 8.37-9.55L8.37-9.55Q4.52-3.66 2.91-0.71L2.91-0.71Q2.51 0 1.71 0L1.71 0 0.32 0Q0.02 0-0.18-0.4-0.39-0.81-0.24-1.29L-0.24-1.29Z" opacity="1" transform="matrix(1,0,0,1,0,0)" fill="#000000" class="wordmark-text-0" data-fill-palette-color="quaternary" id="text-0"></path></svg></g></svg></g></svg></g></svg></g><g transform="matrix(1,0,0,1,40.713262274387006,0)"><svg viewBox="0 0 131.7319166783831 125.78183481258593" height="125.78183481258593" width="131.7319166783831"><g><svg xmlns="http://www.w3.org/2000/svg" xmlns:xlink="http://www.w3.org/1999/xlink" xml:space="preserve" version="1.1" style="shape-rendering:geometricPrecision;text-rendering:geometricPrecision;image-rendering:optimizeQuality;" viewBox="9.013457958102146 10.865239828489056 81.97115127945621 78.26866920036227" x="0" y="0" fill-rule="evenodd" clip-rule="evenodd" height="125.78183481258593" width="131.7319166783831" class="icon-icon-0" data-fill-palette-color="quaternary" id="icon-0"><g fill="#ffffff" data-fill-palette-color="quaternary"><path class="" d="M17.87 39.75c-8.02-19.9 11.71-19.68 26.35-24.23 2.75-0.86 23.14-12.55 14.52 4.76-0.32 0.64-0.67 1.24-1.05 1.78 13.31-3.14 21.79-8.92 14.85 6.31 11.22 10.02 25.41 19.03 14.57 37.9-15.25 26.57-47.88 30.35-70.19 9.41-11.49-10.8-10.67-28.52 3.86-33.44 0.18-0.04 0.35-0.07 0.52-0.07 1.1-0.04 2.11 0.69 2.4 1.79 0.32 1.28-0.45 2.59-1.72 2.91-1.84 0.62-3.16 1.2-4.49 2.71-14.71 16.69 13.31 32.19 28.16 34.28 24.05 3.37 53.07-23.59 33.24-44.33-15.31-16.02-12.56-3.56-9.14-15.64-2.74 1.02-4.39 1.57-8.78 2.54-21.29 4.72-10.08-2.14-6.49-9.73l-9.09 3.45c-13.09 4.12-29.12 2.97-23.26 17.43 0.57 1.12 0.18 2.48-0.88 3.13l-0.16 0.09c-1.18 0.6-2.62 0.13-3.22-1.05z m42.45-5.04c3.31 1.03 1.69 0.68 4.84 1.11 1.32 0.11 2.3 1.27 2.18 2.58-0.11 1.32-1.26 2.3-2.58 2.19-4.06-0.56-1.9-0.11-6.44-1.53-1.2-0.56-1.73-1.98-1.18-3.18 0.56-1.2 1.98-1.72 3.18-1.17z m-32.93 7.13c1.93-3.57 4.4-4.68 8.23-5.83 1.31-0.18 2.52 0.74 2.7 2.05 0.18 1.31-0.74 2.51-2.05 2.69-1.63 0.51-3.47 1.3-4.43 2.83-0.48 1.23-1.86 1.84-3.09 1.36-1.23-0.48-1.84-1.87-1.36-3.1z m5.14 18.43c5.14-0.96 17.25-3.39 21.5-2.59l-0.23 0.03c1.31-0.11 2.47 0.87 2.58 2.19 0.11 1.31-0.87 2.47-2.19 2.58-6.05-0.57-13.38 1.08-19.53 2.24 10.67 16.36 41.04 1.76 34.83-15.64-0.07-0.17-0.12-0.34-0.16-0.51-0.2-1.08 0.36-2.19 1.4-2.64 1.21-0.53 2.62 0.03 3.15 1.24 9.72 27.31-43.28 46.4-47.38 7.09-0.05-0.19-0.07-0.38-0.07-0.58l0-0.04 0-0.02 0-0.03 0.01-0.03 0-0.03 0-0.03 0-0.03 0.01-0.03 0-0.03 0-0.03 0.01-0.02 0-0.04 0.01-0.02 0-0.04 0.01-0.02 0.01-0.04 0-0.01 0.01-0.05 0-0.01 0.01-0.05 0 0 0.02-0.05 0-0.01 0.02-0.05 0 0 0.03-0.11 0.01 0 0.02-0.05 0 0 0.02-0.06 0.02-0.05 0 0 0.03-0.05 0 0 0.02-0.05 0-0.01 0.03-0.04 0-0.01 0.03-0.04 0-0.01 0.03-0.04 0-0.01 0.03-0.04 0 0 0.03-0.05 0 0 0.04-0.05 0.03-0.05 0.04-0.04 0 0 0.03-0.05 0 0 0.01 0 0.07-0.08 0 0 0.04-0.04 0-0.01 0.04-0.03 0-0.01 0.04-0.03 0.01-0.01 0.03-0.03 0.01-0.01 0.04-0.03 0.01-0.01 0.03-0.03 0.01-0.01 0.04-0.02 0.01-0.01 0.03-0.03 0.02-0.01c0.16-0.11 0.33-0.2 0.51-0.28 13.48-6.55 20.64-4.53 35.23-6.32 1.13-0.14 0.9-0.13 1.76-0.11 1.32 0 2.39 1.07 2.39 2.39 0 1.32-1.07 2.39-2.39 2.39l-0.6-0.01 0.12-0.06c-9.73 1.43-14.64 0.8-19.79 1.31-1.58 0.16-3.18 0.43-4.94 0.89-2.37 0.62-5.03 1.6-8.35 3.17 0.25 1.89 0.64 3.6 1.16 5.14z" fill="#000000" data-fill-palette-color="quaternary"></path></g></svg></g></svg></g><g></g></svg></g></svg></g></svg></g></svg></g><defs></defs></svg><rect width="333.90454557049503" height="333.90454557049503" fill="none" stroke="none" visibility="hidden"></rect></g></svg></g></svg>